<?xml version="1.0" encoding="utf-8"?>
<!-- Generator: Adobe Illustrator 18.0.0, SVG Export Plug-In . SVG Version: 6.00 Build 0)  -->
<!DOCTYPE svg PUBLIC "-//W3C//DTD SVG 1.1//EN" "http://www.w3.org/Graphics/SVG/1.1/DTD/svg11.dtd">
<svg version="1.1" id="Layer_1" xmlns="http://www.w3.org/2000/svg" xmlns:xlink="http://www.w3.org/1999/xlink" x="0px" y="0px"
	 viewBox="100 100 300 300" enable-background="new 100 100 300 300" xml:space="preserve">
<g>
	<g>
		<circle fill="#0D74BA" cx="249.3" cy="250.5" r="149.1"/>
		<g opacity="0.5">
			<defs>
				<path id="SVGID_1_" opacity="0.5" d="M204.7,336.9l61.8,61.8c0,0,78.8,20.6,114.4-36.1c0,0,52.7-54.7,17.2-103.8l-59.5-58.4
					L210.1,200l-17.7-24l11.2,82.8l6.4,38.2v21L204.7,336.9z"/>
			</defs>
			<clipPath id="SVGID_2_">
				<use xlink:href="#SVGID_1_"  overflow="visible"/>
			</clipPath>
			<circle clip-path="url(#SVGID_2_)" fill="#185A8D" cx="249.2" cy="250" r="149.1"/>
		</g>
	</g>
	<g>
		<path fill="#4DB867" d="M231.2,297H313h0.5c6.3,0,10.2-4.8,11.4-10.8l15.6-81.8c0.4-2.1-1.2-4.4-3.3-4.4H210.1L231.2,297z"/>
		<path fill="#FFFFFF" d="M313,309h-91.5l-29.1-133h-30.8c-3.3,0-6,2.7-6,6s2.7,6,6,6h21l26.8,122.5c-5.6,2.6-9.6,8.3-9.6,14.9
			c0,9,7.3,16.4,16.4,16.4c9,0,16.4-7.3,16.4-16.4c0-1.5-0.3-2.3-0.6-4.3h65.3c-0.4,2-0.6,2.8-0.6,4.3c0,9,7.3,16.4,16.4,16.4
			c9,0,16.4-7.3,16.4-16.3S322,309,313,309z"/>
	</g>
</g>
</svg>
