<?xml version="1.0" encoding="utf-8"?>
<!-- Generator: Adobe Illustrator 18.0.0, SVG Export Plug-In . SVG Version: 6.00 Build 0)  -->
<!DOCTYPE svg PUBLIC "-//W3C//DTD SVG 1.1//EN" "http://www.w3.org/Graphics/SVG/1.1/DTD/svg11.dtd">
<svg version="1.1" id="Layer_1" xmlns="http://www.w3.org/2000/svg" xmlns:xlink="http://www.w3.org/1999/xlink" x="0px" y="0px"
	 viewBox="0 0 300 300" enable-background="new 0 0 300 300" xml:space="preserve">
<g>
	<g>
		<path fill="#48B768" d="M251.1,119.4c0.3-2.5,0.4-5,0.4-7.5c0-39.6-32.1-71.7-71.7-71.7c-23.5,0-44.3,11.3-57.4,28.7
			c-6.6-2.9-14-4.6-21.7-4.6C71.1,64.4,47,88.5,47,118.1c0,0.6,0,1.1,0,1.7c-23.2,6-40.3,27-40.3,52.1c0,29.7,24.1,53.7,53.7,53.7
			h178.8v0c0.1,0,0.2,0,0.4,0c29.7,0,53.7-24.1,53.7-53.7C293.3,146.2,275.2,124.7,251.1,119.4z"/>
	</g>
	<g>
		<path fill="#FFFFFF" d="M68.1,200.3h98.5l0.2-35.7h35.5l-35.7,35.7h35.7V66.2L68.1,200.3z M132.4,195v-25.5l23.9,0L132.4,195z
			 M171.5,155.3v-25.5l23.9,0L171.5,155.3z"/>
	</g>
</g>
</svg>
