<?xml version="1.0" encoding="utf-8"?>
<!-- Generator: Adobe Illustrator 18.0.0, SVG Export Plug-In . SVG Version: 6.00 Build 0)  -->
<!DOCTYPE svg PUBLIC "-//W3C//DTD SVG 1.1//EN" "http://www.w3.org/Graphics/SVG/1.1/DTD/svg11.dtd">
<svg version="1.1" id="Layer_1" xmlns="http://www.w3.org/2000/svg" xmlns:xlink="http://www.w3.org/1999/xlink" x="0px" y="0px"
	 viewBox="0 0 500 500" enable-background="new 0 0 500 500" xml:space="preserve">
<g>
	<g>
		<path fill="#48B768" d="M425,226.3c0.5-4.3,0.7-8.6,0.7-12.9c0-68.1-55.2-123.4-123.4-123.4c-40.5,0-76.2,19.4-98.8,49.3
			c-11.4-5-24.1-7.9-37.4-7.9c-50.9,0.2-92.4,41.6-92.4,92.6c0,1,0,1.9,0,2.9c-40,10.3-69.4,46.5-69.4,89.6
			c0,51.1,41.5,92.4,92.4,92.4h307.6l0,0c0.2,0,0.3,0,0.7,0c51.1,0,92.4-41.5,92.4-92.4C497.6,272.4,466.6,235.4,425,226.3z"/>
	</g>
	<g>
		<path fill="#FFFFFF" d="M110.2,365.4h169.5L280,304h61.1l-61.4,61.4h61.4V134.7L110.2,365.4z M220.8,356.4v-43.9h41.1L220.8,356.4
			z M288.1,288v-43.9h41.1L288.1,288z"/>
	</g>
</g>
</svg>
