<?xml version="1.0" encoding="utf-8"?>
<!-- Generator: Adobe Illustrator 18.0.0, SVG Export Plug-In . SVG Version: 6.00 Build 0)  -->
<!DOCTYPE svg PUBLIC "-//W3C//DTD SVG 1.1//EN" "http://www.w3.org/Graphics/SVG/1.1/DTD/svg11.dtd">
<svg version="1.1" id="Layer_1" xmlns="http://www.w3.org/2000/svg" xmlns:xlink="http://www.w3.org/1999/xlink" x="0px" y="0px"
	 viewBox="0 0 500 500" enable-background="new 0 0 500 500" xml:space="preserve">
<g>
	<path fill="#4DB867" d="M214.7,333.7h161.1h1c12.4,0,20.2-9.5,22.4-21.5L430,150.7c0.7-4.1-2.4-8.9-6.5-8.9H173L214.7,333.7z"/>
	<path fill="#FFFFFF" d="M375.9,356.6H195.5L138.1,94.3H77.5c-6.6,0-11.9,6.1-11.9,12.7s5.4,12.7,11.9,12.7H119l52.7,240.9
		c-11.1,5.1-18.9,16-18.9,29.1c0,17.8,14.4,32,32.2,32s32.2-14.9,32.2-32.6c0-3-0.5-7.2-1.3-8.8h128.7c-0.7,1.7-1.3,5.8-1.3,8.7
		c0,17.8,14.4,32.4,32.2,32.4s32.2-14.6,32.2-32.4C408.1,371.2,393.7,356.6,375.9,356.6z"/>
</g>
</svg>
