<?xml version="1.0" encoding="utf-8"?>
<!-- Generator: Adobe Illustrator 18.0.0, SVG Export Plug-In . SVG Version: 6.00 Build 0)  -->
<!DOCTYPE svg PUBLIC "-//W3C//DTD SVG 1.1//EN" "http://www.w3.org/Graphics/SVG/1.1/DTD/svg11.dtd">
<svg version="1.1" id="Layer_1" xmlns="http://www.w3.org/2000/svg" xmlns:xlink="http://www.w3.org/1999/xlink" x="0px" y="0px"
	 viewBox="0 0 500 500" enable-background="new 0 0 500 500" xml:space="preserve">
<g>
	<path fill="#FFFFFF" d="M102.9,187c12.3,7.1,29.4,12.7,50.6,16.8s44.4,6.2,69.3,6.2s48.1-2.1,69.3-6.2c21.2-4.1,36-9.7,48.4-16.8
		c12.3-7.1,16.5-14.7,16.5-23v-23c0-8.3-4.2-15.9-16.5-23s-28.1-12.7-49.3-16.8C270,97,247.4,95,222.4,95c-24.9,0-47.8,2.1-69,6.2
		s-38.3,9.7-50.7,16.8C90.5,125.1,84,132.7,84,141v23C84,172.3,90.6,180,102.9,187z"/>
	<path fill="#FFFFFF" d="M102.9,256.1c12.3,7.1,29.4,12.7,50.6,16.8c21.2,4.1,44.4,6.2,69.3,6.2c20.5,0,39.7-1.5,57.7-4.3l67-64.4
		c-12.3,6.2-27.2,11.2-45,14.9c-24.7,5.2-51.2,7.7-79.7,7.7c-28.4,0-55.4-2.6-80.1-7.7c-24.7-5.1-47.7-12.8-58.9-22.8v30.6
		C84,241.3,90.6,249,102.9,256.1z"/>
	<path fill="#FFFFFF" d="M102.9,325.1c12.3,7.1,29.4,12.7,50.6,16.8c16,3.1,33.1,5.1,51.2,5.8l48.7-46.8c-10,0.7-20,1.2-30.5,1.2
		c-28.4,0-55.4-2.6-80.1-7.7s-47.7-12.8-58.9-22.8v30.6C84,310.4,90.6,318.1,102.9,325.1z"/>
	<path fill="#FFFFFF" d="M142.9,363.4c-24.7-5.2-47.7-12.8-58.9-22.8v30.6c0,8.3,6.6,15.9,18.9,23c9.9,5.7,23.1,10.4,38.7,14.2
		l40.6-39.1C168.7,368,155.4,366.1,142.9,363.4z"/>
	<path fill="#4DB867" d="M161.7,417H406V181.3L161.7,417z M264,401.5V357h42.7L264,401.5z M325,401.5V337h62.2L325,401.5z
		 M346,322.9V275h41.2L346,322.9z"/>
</g>
</svg>
